<svg width="150" height="150" viewBox="0 0 150 150" fill="none" xmlns="http://www.w3.org/2000/svg">
<path d="M150 75C150 116.421 116.421 150 75 150C33.5786 150 0 116.421 0 75C0 33.5786 33.5786 0 75 0C116.421 0 150 33.5786 150 75Z" fill="white"/>
<path d="M109.598 105.827V114.055H87.7432V107.596C87.7432 106.358 87.8906 105.296 88.1856 104.411L101.192 60.8792C101.251 60.5843 101.133 60.4368 100.838 60.4368H87.7432V52.2083H109.598V58.6672C109.598 59.906 109.45 60.9677 109.155 61.8525L96.945 105.384C96.886 105.679 97.004 105.827 97.2989 105.827H109.598Z" fill="black"/>
<path d="M44.4919 114.055V51.3457H42.3905L43.9389 36.636H59.5334V56.8756L69.0449 36.636H83.4228L68.2707 68.9309L85.4135 114.055H71.0357L59.5334 83.7512V114.055H44.4919Z" fill="black"/>
</svg>
